<?xml version="1.0" encoding="utf-8"?>
<!-- Generator: Adobe Illustrator 26.3.1, SVG Export Plug-In . SVG Version: 6.00 Build 0)  -->
<svg version="1.1" id="Layer_1" xmlns="http://www.w3.org/2000/svg" xmlns:xlink="http://www.w3.org/1999/xlink" x="0px" y="0px"
	 viewBox="0 0 521.1 194.2" style="enable-background:new 0 0 521.1 194.2;" xml:space="preserve">
<style type="text/css">
	.st0{fill:#FFFFFF;stroke:#1806FF;stroke-width:4;stroke-miterlimit:10;}
</style>
<path class="st0" d="M522.5,1c-0.7,0.5-1.3,0.9-1.9,1.2H2.4C1.8,1.9,1.2,1.5,0.5,1l-0.9,1.2l0,0l0,0l-0.9,1.2c3.4,2.5,6,2.8,8.3,3
	c2.2,0.2,4,0.4,6.8,2.5c2.8,2,3.5,3.8,4.4,5.8c0.9,2.1,1.9,4.5,5.3,7s6,2.8,8.3,3c2.2,0.2,4,0.4,6.8,2.5c2.8,2,3.5,3.8,4.4,5.8
	c0.9,2.1,1.9,4.5,5.3,7s6,2.8,8.3,3c2.2,0.2,4,0.4,6.8,2.5c2.8,2,3.5,3.8,4.4,5.8c0.9,2.1,1.9,4.5,5.3,7s6,2.8,8.3,3
	c2.2,0.2,4,0.4,6.8,2.5c2.8,2,3.5,3.8,4.4,5.8c0.9,2.1,1.9,4.5,5.3,7s6,2.8,8.3,3c2.2,0.2,4,0.4,6.8,2.5s3.5,3.8,4.4,5.8
	c0.9,2.1,1.9,4.5,5.3,7s6,2.8,8.3,3c2.2,0.2,4,0.4,6.8,2.5c2.8,2,3.5,3.8,4.4,5.8c0.9,2.1,1.9,4.5,5.3,7s6,2.8,8.3,3
	c2.2,0.2,4,0.4,6.8,2.5c2.8,2,3.5,3.8,4.4,5.8c0.9,2.1,1.9,4.5,5.3,7s6,2.8,8.3,3c2.2,0.2,4,0.4,6.8,2.5c2.8,2,3.5,3.8,4.4,5.8
	c0.9,2.1,1.9,4.5,5.3,7s6,2.8,8.3,3c2.2,0.2,4,0.4,6.8,2.5c2.8,2,3.5,3.8,4.4,5.8c0.9,2.1,1.9,4.5,5.3,7s6,2.8,8.3,3
	c2.2,0.2,4,0.4,6.8,2.5c2.8,2,3.5,3.8,4.4,5.8c0.9,2.1,1.9,4.5,5.3,7c0.6,0.4,1.1,0.8,1.6,1.2c4.9,3.7,5.8,4.2,13,4.2c0,0,0,0,0.1,0
	c7.2,0,8.1-0.5,13.1-4.2c0.5-0.4,1-0.8,1.6-1.2c3.4-2.5,4.5-4.9,5.4-7c0.9-2,1.6-3.7,4.4-5.8c2.8-2,4.6-2.2,6.8-2.5
	c2.3-0.2,4.9-0.5,8.3-3s4.5-4.9,5.4-7c0.9-2,1.6-3.7,4.4-5.8c2.8-2,4.6-2.2,6.8-2.5c2.3-0.2,4.9-0.5,8.3-3s4.5-4.9,5.3-7
	c0.9-2,1.6-3.7,4.4-5.8c2.8-2,4.6-2.2,6.8-2.5c2.3-0.2,4.9-0.5,8.3-3c3.4-2.5,4.5-4.9,5.4-7c0.9-2,1.6-3.7,4.4-5.8
	c2.8-2,4.6-2.2,6.8-2.5c2.3-0.2,4.9-0.5,8.3-3c3.4-2.5,4.5-4.9,5.4-7c0.9-2,1.6-3.7,4.4-5.8s4.6-2.2,6.8-2.5c2.3-0.2,4.9-0.5,8.3-3
	s4.5-4.9,5.4-7c0.9-2,1.6-3.7,4.4-5.8c2.8-2,4.6-2.2,6.8-2.5c2.3-0.2,4.9-0.5,8.3-3c3.4-2.5,4.5-4.9,5.4-7c0.9-2,1.6-3.7,4.4-5.8
	c2.8-2,4.6-2.2,6.8-2.5c2.3-0.2,4.9-0.5,8.3-3s4.5-4.9,5.3-7c0.9-2,1.6-3.7,4.4-5.8c2.8-2,4.6-2.2,6.8-2.5c2.3-0.2,4.9-0.5,8.3-3
	c3.4-2.5,4.5-4.9,5.3-7c0.9-2,1.6-3.7,4.4-5.8c2.8-2,4.6-2.2,6.8-2.5c2.3-0.2,4.9-0.5,8.3-3s4.5-4.9,5.4-7c0.9-2,1.6-3.7,4.4-5.8
	c2.8-2,4.6-2.2,6.8-2.5c2.3-0.2,4.9-0.5,8.3-3L522.5,1z"/>
</svg>
