<?xml version="1.0" encoding="utf-8"?>
<!-- Generator: Adobe Illustrator 26.3.1, SVG Export Plug-In . SVG Version: 6.00 Build 0)  -->
<svg version="1.1" id="Layer_1" xmlns="http://www.w3.org/2000/svg" xmlns:xlink="http://www.w3.org/1999/xlink" x="0px" y="0px"
	 viewBox="0 0 521.1 1507.3" style="enable-background:new 0 0 521.1 1507.3;" xml:space="preserve">
<style type="text/css">
	.st0{fill:#FFFFFF;stroke:#1806FF;stroke-width:4;stroke-miterlimit:10;}
	.st1{fill:#FFFFFF;}
	.st2{fill:none;stroke:#1806FF;stroke-width:4;stroke-miterlimit:10;}
</style>
<polygon class="st0" points="520.1,1505.3 519.7,0 261.8,188.5 259.8,188.5 1.8,0 1.4,1505.3 "/>
<g>
	<path class="st1" d="M2.1,354.7c6.1-5,9-1.5,15.1-6.5s3.3-8.5,9.4-13.5s9-1.5,15.1-6.5s3.3-8.5,9.4-13.5s9-1.5,15.1-6.5
		s3.3-8.5,9.4-13.5s9-1.5,15.1-6.5s3.3-8.5,9.4-13.5s9-1.5,15.1-6.5s3.3-8.5,9.4-13.5c6.1-5,9-1.5,15.1-6.5c6.1-5,3.3-8.5,9.4-13.5
		c6.1-5,9-1.5,15.1-6.5s3.3-8.5,9.4-13.5c6.1-5,9-1.5,15.1-6.5s3.3-8.5,9.4-13.5c6.1-5,9-1.5,15.1-6.5s3.3-8.5,9.4-13.5
		c6.1-5,9-1.5,15.1-6.5s3.3-8.5,9.4-13.5c6.1-5,5.8-6,13.7-6s7.5,1,13.7,5.9c6.1,5,3.2,8.5,9.4,13.5c6.1,5,9,1.5,15.1,6.5
		s3.2,8.5,9.4,13.5c6.1,5,9,1.5,15.1,6.5s3.2,8.5,9.4,13.5c6.1,5,9,1.5,15.1,6.5s3.2,8.5,9.4,13.5c6.1,5,9,1.5,15.1,6.5
		s3.2,8.5,9.4,13.5c6.1,5,9,1.5,15.1,6.5c6.1,5,3.3,8.5,9.4,13.5s9,1.5,15.1,6.5s3.3,8.5,9.4,13.5s9,1.5,15.1,6.5s3.2,8.5,9.4,13.5
		c6.1,5,9,1.5,15.1,6.5s3.3,8.5,9.4,13.5s9,1.5,15.1,6.5s3.3,8.5,9.4,13.5s9,1.5,15.1,6.5"/>
	<path class="st2" d="M2.1,354.7c6.1-5,9-1.5,15.1-6.5s3.3-8.5,9.4-13.5s9-1.5,15.1-6.5s3.3-8.5,9.4-13.5s9-1.5,15.1-6.5
		s3.3-8.5,9.4-13.5s9-1.5,15.1-6.5s3.3-8.5,9.4-13.5s9-1.5,15.1-6.5s3.3-8.5,9.4-13.5c6.1-5,9-1.5,15.1-6.5c6.1-5,3.3-8.5,9.4-13.5
		c6.1-5,9-1.5,15.1-6.5s3.3-8.5,9.4-13.5c6.1-5,9-1.5,15.1-6.5s3.3-8.5,9.4-13.5c6.1-5,9-1.5,15.1-6.5s3.3-8.5,9.4-13.5
		c6.1-5,9-1.5,15.1-6.5s3.3-8.5,9.4-13.5c6.1-5,5.8-6,13.7-6s7.5,1,13.7,5.9c6.1,5,3.2,8.5,9.4,13.5c6.1,5,9,1.5,15.1,6.5
		s3.2,8.5,9.4,13.5c6.1,5,9,1.5,15.1,6.5s3.2,8.5,9.4,13.5c6.1,5,9,1.5,15.1,6.5s3.2,8.5,9.4,13.5c6.1,5,9,1.5,15.1,6.5
		s3.2,8.5,9.4,13.5c6.1,5,9,1.5,15.1,6.5c6.1,5,3.3,8.5,9.4,13.5s9,1.5,15.1,6.5s3.3,8.5,9.4,13.5s9,1.5,15.1,6.5s3.2,8.5,9.4,13.5
		c6.1,5,9,1.5,15.1,6.5s3.3,8.5,9.4,13.5s9,1.5,15.1,6.5s3.3,8.5,9.4,13.5s9,1.5,15.1,6.5"/>
</g>
</svg>
