<?xml version="1.0" encoding="utf-8"?>
<!-- Generator: Adobe Illustrator 26.2.1, SVG Export Plug-In . SVG Version: 6.00 Build 0)  -->
<svg version="1.1" id="Layer_1" xmlns="http://www.w3.org/2000/svg" xmlns:xlink="http://www.w3.org/1999/xlink" x="0px" y="0px"
	 viewBox="0 0 1125 349.3" style="enable-background:new 0 0 1125 349.3;" xml:space="preserve">
<g>
	<g>
		<path d="M33.6,181.3l99.1,39c6.9,2.8,14.7,6.3,21.6,9c-4.1-5.9-8.9-12.3-13.1-18.2l-49.9-70.6l9.1-6.5l72.1,102.1l-10.7,7.6
			l-97.1-38.3c-7.7-2.9-15.7-6.7-23.2-9.5c4.6,6.6,9.8,13.6,14.6,20.3l48.2,68.2l-9.1,6.5L23.1,188.7L33.6,181.3z"/>
		<path d="M239.2,190.9l-1.9-4.2l-0.2,0.1c0.1,8.4-2.4,22.9-21.2,31.4c-19.6,8.8-34.6,1.9-40.1-10.4c-7.9-17.7,9.6-31.3,25.3-41.6
			c13.1-8.8,20.4-14.9,17-22.4c-4.9-10.9-16.3-11.9-29-6.2c-11.5,5.1-17,15.5-14.7,28l-9.6,4.3c-3.2-13.1,0.9-31.5,20.4-40.2
			c25.4-11.4,38,0.6,43.8,13.4l17.8,39.2c2.6,5.9,5.8,11.8,8.9,16.5l-10.1,4.5C242.9,199.2,241.2,195.5,239.2,190.9z M228,165.4
			l-5.6-12.6c0,6.3-6.6,13.5-21,22.8c-13.4,8.7-20.2,18.2-15.9,27.8c4,8.9,14.8,12.5,28.1,6.6C228.9,203.1,237.3,186.3,228,165.4z"
			/>
		<path d="M247.6,104.5l10.1-2.7l4.3,16.1c0.7-10.2,7.7-20.7,19.3-23.9c13.2-3.5,23-0.7,30.6,10.1c3.3-13.9,9.9-21,21.8-24.2
			c17.2-4.6,30.9,2.5,37.2,25.9l14.9,55.3l-10.1,2.7L361,109.2c-5.1-19.1-14.7-23.8-25.9-20.8c-12.5,3.4-20.1,17-14.2,39l12.8,47.7
			l-10.1,2.7L309,123.2c-5.1-19.1-14.4-23.9-26.2-20.7c-16.1,4.3-18.7,22.8-13.7,41.5l12.1,45.1l-10.1,2.7L247.6,104.5z"/>
		<path d="M467.3,123.7l10.4-1.4c-3,17.7-15.4,30.3-35.4,32.9c-27.2,3.6-45.7-15-49.1-40.5c-3.3-25.2,10.1-48.1,36.4-51.6
			c28.1-3.7,41.6,15.5,46.1,38.9c0.2,1.7,0.6,3.3,0.8,4.8l-72.9,9.6c3.5,20.2,18.4,32.5,37.3,30
			C454.9,144.8,464.6,136.4,467.3,123.7z M402.8,108.2l62.3-8.2c-4.5-19.7-15.4-30.8-34.3-28.3C412.4,74.1,401.9,89.1,402.8,108.2z"
			/>
		<path d="M568.6,147.2c-27.3-0.2-38-20.1-37.8-34.6c0.2-19.4,13.4-27.5,30.6-36.8c-10.2-13.4-15-19.7-14.9-30.9
			c0.1-13.1,10.5-24.4,27.3-24.3c15.7,0.1,28.4,10.2,28.3,24.9c-0.1,14-11.6,24.4-26.2,32.7l28.6,34.6c3.4-7,5.7-14.5,6.9-22.9
			l8.9,0.1c-1.7,11-5.3,21.8-9.7,30.2l21.5,26.3l-12.6-0.1l-14.4-18C597,139.3,585.7,147.4,568.6,147.2z M541.2,112.5
			c-0.1,13.3,11.3,26,27.1,26.1c14.9,0.1,23.7-7.7,30.8-17.4l-32-38.8C551.2,91.4,541.4,96.8,541.2,112.5z M591.9,45.8
			c0.1-9.1-6.9-16.5-17.9-16.6c-10.1-0.1-17.2,6.1-17.3,16.3c-0.1,8.7,5.1,14.9,13.2,26C583,64.1,591.8,57.2,591.9,45.8z"/>
		<path d="M714.2,29.7l43.2,97.4c2.9,6.9,6.1,14.8,9,21.5c1.2-7.1,2.3-15,3.5-22.1L784,41.3l11,1.8l-20.4,123.3l-12.9-2.1
			l-42.2-95.5c-3.4-7.5-6.4-15.8-9.8-23.1c-1.3,7.9-2.6,16.6-3.9,24.7l-13.6,82.4l-11-1.8l20.4-123.3L714.2,29.7z"/>
		<path d="M856.6,175.2l1.3-4.4l-0.2,0c-5.4,6.4-16.7,15.9-36.5,10c-20.6-6.1-27.5-21.1-23.7-34c5.5-18.6,27.6-17.6,46.3-15.2
			c15.7,1.9,25.2,1.9,27.5-6c3.4-11.4-4.6-19.6-18.1-23.6c-12.1-3.6-23,0.7-29.4,11.8l-10.1-3c6.1-12.1,21.1-23.3,41.6-17.3
			c26.7,7.9,28.5,25.2,24.6,38.6l-12,41.3c-1.8,6.2-3.2,12.7-3.9,18.4l-10.6-3.1C854.1,183.9,855.2,180,856.6,175.2z M864.7,148.5
			l3.9-13.3c-4.1,4.8-13.8,6-30.8,3.7c-15.8-2.1-27.2,0.7-30.2,10.8c-2.8,9.4,3.1,19.2,17.1,23.3
			C840.9,177.8,858.2,170.5,864.7,148.5z"/>
		<path d="M919.9,114.4l9.4,4.6l-7.2,15c7.2-7.2,19.4-10.7,30.2-5.4c12.3,6,17.9,14.5,16.5,27.7c11.6-8.4,21.3-9.3,32.3-4
			c16.1,7.8,21.7,22.2,11.2,43.9l-25,51.5l-9.4-4.6l24.6-50.9c8.6-17.8,4.4-27.6-6-32.6c-11.7-5.6-26.3-0.3-36.2,20.2l-21.5,44.4
			l-9.4-4.6l24.6-50.9c8.6-17.8,4.7-27.5-6.3-32.8c-15-7.2-29.1,5-37.5,22.5l-20.4,42l-9.4-4.6L919.9,114.4z"/>
		<path d="M1068.5,279.3l8.1,6.7c-14.9,9.9-32.6,9.5-48.2-3.3c-21.3-17.4-20.4-43.6-4.1-63.5c16.1-19.6,42-25.6,62.6-8.7
			c21.9,18,17.1,41,3.1,60.2c-1.1,1.4-2,2.7-3,3.9l-56.9-46.6c-12.3,16.4-11.1,35.7,3.6,47.8C1044.6,284.7,1057.3,286,1068.5,279.3z
			 M1035.7,221.7l48.6,39.8c11.3-16.8,12-32.3-2.8-44.4C1067.1,205.4,1049,207.9,1035.7,221.7z"/>
	</g>
	<g>
		<path d="M378.2,285.5c0,14.3-5.5,24.8-13.9,31.7c-7.8,6.3-18,9.3-28.6,9.3h-21.8l12.8-72.3h17.1c10.3,0,18.3,2.8,24.1,7.6
			C374.6,267.6,378.2,276,378.2,285.5z M371.8,285.4c0-15.6-10.6-25.9-27.1-25.9h-12.4l-10.9,61.7h15.2
			C352.6,321.2,371.8,311.2,371.8,285.4z"/>
		<path d="M407.7,296.4c10.5-1.5,16.4-3.3,16.4-9.3c0-6.3-6.2-8.7-13.4-8.7c-7.9,0-13,3.9-15.2,11.3h-6.1c1.7-7.8,9-16.4,21.3-16.4
			c15.8,0,20.1,9.4,18.7,17.5l-4.6,25.1c-0.7,3.7-1,7.2-0.9,10.5h-6.3c0.1-3.5,0.5-6.5,0.9-9.3c-2.6,4.1-7.9,10.1-19.1,10.1
			c-12.6,0-16.7-7.9-16.7-14.2C382.8,300.8,395.8,298.2,407.7,296.4z M400.9,322.5c11.3,0,18.1-8.2,20.6-20l1.4-7.2
			c-2.6,3.2-7.3,5.1-17.3,6.5c-9.2,1.4-16.9,3.3-16.9,11.3C388.8,317.5,391.7,322.5,400.9,322.5z"/>
		<path d="M446.5,315.4c-0.8,4,0.7,6.2,4.7,6.2h4.1l-0.8,5h-3.7c-8.6,0-11.4-4.7-10.2-11.7l6.3-35.6H439l0.8-5h7.9l2.2-12.7l6.5-2.8
			l-2.7,15.5h10.1l-0.8,5h-10.1L446.5,315.4z"/>
		<path d="M465.6,303.6c0-17.8,10.8-30.2,27.9-30.2c14.7,0,21,11.3,21.3,22.9c0,2.1,0.2,3.8-0.1,6h-43.2
			c-0.1,12.9,5.4,19.8,16.4,19.8c9.3,0,15.5-3.7,18.6-11h6.1c-4.3,10.8-12.9,16.1-25,16.1C472.7,327.2,465.6,316.8,465.6,303.6z
			 M509.2,297.3c-0.2-11.9-6.4-18.8-16-18.8c-11.3,0-19,7-21.1,18.8H509.2z"/>
		<path d="M557.4,248.7l-40,87.4h-6l40-87.4H557.4z"/>
		<path d="M629.9,272.3c0,16.2-12.9,23.8-27.7,23.8h-15.7l-5.4,30.5h-6.5l12.8-72.3h22C622.9,254.2,629.9,263.3,629.9,272.3z
			 M623.5,272.8c0-5.9-3.5-13.3-15.3-13.3h-15.4l-5.5,31.2h14.9C613.3,290.7,623.5,286.2,623.5,272.8z"/>
		<path d="M648.9,254.2l-12.8,72.3h-6.1l12.8-72.3H648.9z"/>
		<path d="M674.7,296.4c10.5-1.5,16.4-3.3,16.4-9.3c0-6.3-6.2-8.7-13.4-8.7c-7.9,0-13,3.9-15.2,11.3h-6.1c1.7-7.8,9-16.4,21.3-16.4
			c15.8,0,20.1,9.4,18.7,17.5l-4.6,25.1c-0.7,3.7-1,7.2-0.9,10.5h-6.3c0.1-3.5,0.5-6.5,0.9-9.3c-2.6,4.1-7.9,10.1-19.1,10.1
			c-12.5,0-16.7-7.9-16.7-14.2C649.8,300.8,662.8,298.2,674.7,296.4z M667.9,322.5c11.3,0,18.1-8.2,20.6-20l1.4-7.2
			c-2.6,3.2-7.3,5.1-17.3,6.5c-9.2,1.4-16.9,3.3-16.9,11.3C655.8,317.5,658.7,322.5,667.9,322.5z"/>
		<path d="M727.5,327.2c-14.8,0-23-10.5-23-22.9c0-19.2,12-30.9,28.8-30.9c12.1,0,18.2,7,20.3,15.3h-5.9
			c-1.9-6.2-6.8-10.3-14.6-10.3c-12.8,0-22.8,8.9-22.8,25.7c0,10.1,7.1,18,17.1,18c9.4,0,15.1-3.3,18.7-10.6h6
			C748.1,321.9,740.5,327.2,727.5,327.2z"/>
		<path d="M761.9,303.6c0-17.8,10.8-30.2,27.9-30.2c14.7,0,21,11.3,21.3,22.9c0,2.1,0.2,3.8-0.1,6h-43.2
			c-0.1,12.9,5.4,19.8,16.4,19.8c9.3,0,15.5-3.7,18.6-11h6.1c-4.3,10.8-12.9,16.1-25,16.1C768.9,327.2,761.9,316.8,761.9,303.6z
			 M805.5,297.3c-0.2-11.9-6.4-18.8-16-18.8c-11.3,0-19,7-21.1,18.8H805.5z"/>
	</g>
</g>
</svg>
