<?xml version="1.0" encoding="utf-8"?>
<!-- Generator: Adobe Illustrator 26.2.1, SVG Export Plug-In . SVG Version: 6.00 Build 0)  -->
<svg version="1.1" id="Layer_1" xmlns="http://www.w3.org/2000/svg" xmlns:xlink="http://www.w3.org/1999/xlink" x="0px" y="0px"
	 viewBox="0 0 1125 233.9" style="enable-background:new 0 0 1125 233.9;" xml:space="preserve">
<style type="text/css">
	.st0{fill:#010000;}
</style>
<g>
	<g>
		<path class="st0" d="M8.3,71.7c0-33.3,23.4-63,56.4-63c12.8,0,21.5,5.2,25.7,9.4l-6.2,14.6h-0.6c-0.8-13.2-8-21.9-20.9-21.9
			C38.1,10.8,21,42.5,21,69.5c0,20.2,10.3,33.7,28.5,33.7c10.6,0,22.1-5.4,30-15l0.4,0.8c-8.8,12.8-21,21.6-36.6,21.6
			C22.4,110.6,8.3,95.6,8.3,71.7z"/>
		<path class="st0" d="M161.5,100.4l0.3,0.4c-3.4,7-7.6,9.8-13.2,9.8c-6.3,0-10.5-5.2-8.3-17.1l5.2-29.9c2.3-13.8,0-21.3-8.7-21.3
			c-11,0-24.8,14.9-28.9,27.2l-5.2,30c-0.8,4.1,0.1,7.8,3.2,9.2l-0.1,0.8H85.8l0.1-0.8c3.7-1.7,5.6-5.1,6.3-9.2l13.8-77.7
			c1.1-6.2-1.1-8.9-3.6-11.4l0.1-0.6c5.9-1.1,10.7-2.6,15.8-5.9h0.7l-10.9,60.8c7.2-13.6,20.4-28.2,34.5-28.2
			c12.9,0,15.8,10.9,12.9,27.6l-5.6,32.3c-1.1,6.2,0.3,8.8,4.1,8.8c2.5,0,5-1.4,7.2-5H161.5z"/>
		<path class="st0" d="M227.4,93.4l0.4,0.6c-6.9,9.8-16.8,16.6-29,16.6c-16.4,0-27.9-10.3-27.9-28.6c0-24.1,17.7-45.4,40.7-45.4
			c12.9,0,20.1,6.6,20.1,16c0,18.8-26,26-49,29.9c1.1,12.8,8.1,22,20.9,22C212.5,104.4,220.6,101.5,227.4,93.4z M182.5,79v2.5
			c22.6-4.7,40.2-13.8,40.2-31.4c0-7.7-4.1-11.8-11.6-11.8C194.8,38.3,182.5,60.4,182.5,79z"/>
		<path class="st0" d="M239.4,82.3c0-23.2,17.6-45.7,40.9-45.7c16.5,0,27.6,11,27.6,28.5c0,23.4-17.6,45.5-40.9,45.5
			C250.4,110.6,239.4,99.9,239.4,82.3z M297.1,61.2c0-14-6.9-23-17.3-23c-17.5,0-29.9,27.9-29.9,48c0,14.2,7,22.7,17.3,22.7
			C284.9,109,297.1,81.5,297.1,61.2z"/>
		<path class="st0" d="M319.1,93.6l12.7-71.7c1-5.9-0.8-8.7-3.4-11.4l0.1-0.6c6.6-1.2,11.1-2.8,16.2-5.9h0.6l-16.4,92.6
			c-1.2,6.5,0.6,8.8,4.1,8.8c2.3,0,5-1.2,7.2-5h0.1l0.3,0.4c-3.4,7-7.6,9.8-12.9,9.8C321.1,110.6,316.9,105.4,319.1,93.6z"/>
		<path class="st0" d="M344.3,102.2l6.2-10.2h0.7c0.8,7.7,6.9,16.9,17.5,16.9c10.3,0,18.2-7.4,18.2-15.3c0-8.8-6.3-12.1-14.9-17.2
			c-6.9-4.3-16-8.5-16-19.3c0-12,12.2-20.6,28.6-20.6c8.5,0,15.7,2.8,20.2,7l-6.2,10.5h-0.6c-1-7.8-5.1-15.8-14.3-15.8
			c-10.3,0-17.6,7.2-17.6,15c0,6.7,4.1,9.8,13.9,15.5c8.3,5,16.9,9.5,16.9,19.8c0,13.3-13.3,22-29,22
			C358.8,110.6,349.8,107.7,344.3,102.2z"/>
		<path class="st0" d="M480.1,100.4l0.1,0.4c-3.7,7-7.6,9.8-12.7,9.8c-6.3,0-10.6-5.1-8.5-16.4l2.2-12c-7,13.6-19.7,28.3-33.8,28.3
			c-13.9,0-15.8-12-13.2-27.5l4.8-26.8c1.1-6.1-1-8.5-3.4-11.3v-0.6c6.1-1.2,11.1-2.8,16.4-5.9h0.6l-7.8,45
			c-2.5,13.8-0.3,21.5,8.4,21.5c10.7,0,23.4-13.1,28.1-25l6.9-38.4l10.3-3h0.6l-10.2,58c-1.2,6.5,0.8,8.8,4.1,8.8
			c2.8,0,5.2-1.9,7.2-5H480.1z"/>
		<path class="st0" d="M590.1,9.5h18.6l-0.1,0.8c-5.8,2.6-9.9,6.3-13.9,11.8l-34.4,49l-5,28.5c-0.4,4,0.6,7.8,3.6,9.2l-0.1,0.8H537
			l0.1-0.8c3.6-1.7,5.8-5.2,6.5-9.2l5-28.3l-16.4-48.7c-1.4-3.9-2.8-9.6-8-12.2l0.1-0.8h22.4l-0.1,0.8c-5.4,2.1-4.8,5.2-2.9,11
			l16.1,47l31.8-45.5c3.9-5.4,3.4-9.1-1.7-12.5L590.1,9.5z"/>
		<path class="st0" d="M590.3,82.3c0-23.2,17.6-45.7,40.9-45.7c16.5,0,27.6,11,27.6,28.5c0,23.4-17.6,45.5-40.9,45.5
			C601.3,110.6,590.3,99.9,590.3,82.3z M648.1,61.2c0-14-6.9-23-17.3-23c-17.5,0-29.9,27.9-29.9,48c0,14.2,7,22.7,17.3,22.7
			C635.8,109,648.1,81.5,648.1,61.2z"/>
		<path class="st0" d="M738.2,100.4l0.1,0.4c-3.7,7-7.6,9.8-12.7,9.8c-6.3,0-10.6-5.1-8.5-16.4l2.2-12c-7,13.6-19.7,28.3-33.8,28.3
			c-13.9,0-15.8-12-13.2-27.5l4.8-26.8c1.1-6.1-1-8.5-3.4-11.3v-0.6c6.1-1.2,11.1-2.8,16.4-5.9h0.5l-7.8,45
			c-2.5,13.8-0.3,21.5,8.4,21.5c10.7,0,23.4-13.1,28.1-25l6.9-38.4l10.3-3h0.5l-10.2,58c-1.2,6.5,0.8,8.8,4.1,8.8
			c2.8,0,5.2-1.9,7.2-5H738.2z"/>
		<path class="st0" d="M818.9,100.4l0.3,0.4c-3.4,7-7.6,9.8-13.2,9.8c-6.3,0-10.5-5.2-8.3-17.1l5.2-29.9c2.3-13.8,0.1-21.5-8.5-21.5
			c-11,0-24.6,14.9-28.9,27.4l-5.4,30c-0.7,4.3,0.1,7.8,3.2,9.2l-0.1,0.8h-19.8l0.1-0.8c3.6-1.7,5.5-5.1,6.3-9.2l7.6-43.3
			c1.1-6.2-0.8-8.7-3.4-11.3l0.1-0.7c6.3-1.1,10.7-2.6,15.8-5.9h0.6l-4.7,26.4c7.3-13.6,20.1-28.2,34.4-28.2
			c12.9,0,16,10.9,12.9,27.6l-5.6,32.3c-1.2,6.5,0.7,8.8,4.1,8.8c2.3,0,5-1.4,7.2-5H818.9z"/>
		<path class="st0" d="M882.9,109.7c-3.9,20.4-17.3,28.6-33.4,28.6c-13.1,0-21.9-9.1-24.8-18.3l0.6-0.4h0.3
			c2.2,6.9,9.6,12.7,22,12.7c11.3,0,20.6-5.5,23.7-20.5l5.1-26c-8.7,15.3-19,24.9-30,24.9c-11.4,0-18.6-8-18.6-22.3
			c0-28.9,19.7-51.7,42.4-51.7c6.3,0,13.1,2.2,16.6,7.6l8.5-5.2h0.6L882.9,109.7z M877.2,81.7l6.3-32.3c-0.7-7.4-5.9-10.9-12.9-10.9
			c-16.6,0-31.8,24.1-31.8,48.8c0,12,3.4,17.5,11.1,17.5C859.2,104.8,868.7,96.6,877.2,81.7z"/>
		<path class="st0" d="M973.9,100.4l0.3,0.4c-3.4,7-7.6,9.8-13.2,9.8c-6.3,0-10.5-5.2-8.3-17.1l5.2-29.9c2.3-13.8,0-21.3-8.7-21.3
			c-11,0-24.8,14.9-28.9,27.2l-5.2,30c-0.8,4.1,0.1,7.8,3.2,9.2l-0.1,0.8h-19.9l0.1-0.8c3.7-1.7,5.6-5.1,6.3-9.2l13.8-77.7
			c1.1-6.2-1.1-8.9-3.6-11.4l0.1-0.6c5.9-1.1,10.7-2.6,15.8-5.9h0.7l-10.9,60.8c7.2-13.6,20.4-28.2,34.5-28.2
			c12.9,0,15.8,10.9,12.9,27.6l-5.6,32.3c-1.1,6.2,0.3,8.8,4.1,8.8c2.5,0,5-1.4,7.2-5H973.9z"/>
		<path class="st0" d="M1039.8,93.4l0.4,0.6c-6.9,9.8-16.8,16.6-29,16.6c-16.4,0-27.9-10.3-27.9-28.6c0-24.1,17.7-45.4,40.7-45.4
			c12.9,0,20.1,6.6,20.1,16c0,18.8-26,26-49,29.9c1.1,12.8,8.1,22,20.9,22C1025,104.4,1033.1,101.5,1039.8,93.4z M995,79v2.5
			c22.6-4.7,40.2-13.8,40.2-31.4c0-7.7-4.1-11.8-11.6-11.8C1007.2,38.3,995,60.4,995,79z"/>
		<path class="st0" d="M1108.5,93.4l0.4,0.6c-6.9,9.8-16.8,16.6-29,16.6c-16.4,0-27.9-10.3-27.9-28.6c0-24.1,17.7-45.4,40.7-45.4
			c12.9,0,20.1,6.6,20.1,16c0,18.8-26,26-49,29.9c1.1,12.8,8.1,22,20.9,22C1093.6,104.4,1101.7,101.5,1108.5,93.4z M1063.6,79v2.5
			c22.6-4.7,40.2-13.8,40.2-31.4c0-7.7-4.1-11.8-11.6-11.8C1075.9,38.3,1063.6,60.4,1063.6,79z"/>
	</g>
</g>
<g>
	<g>
		<path class="st0" d="M323.7,203.2c6.6,0,10.4-4.4,12.8-7.7h0.4l-6.8,13.5h-40.4l0.2-0.9c18.6-15.4,42.7-36.7,42.7-53.4
			c0-8.8-5-13.1-12.4-13.1c-12.5,0-18.4,9.9-20,17.9h-0.6c2-11.1,10.2-21.5,23.2-21.5c10.7,0,17.8,5.5,17.8,15.6
			c0,18.4-26,35.5-43.7,49.6H323.7z"/>
		<path class="st0" d="M347.9,182.5c0-22.2,15.5-44.5,35.2-44.5c13.1,0,22.9,10.5,22.9,27.2c0,22.2-15.7,44.5-35.5,44.5
			C357.6,209.7,347.9,199.2,347.9,182.5z M398.1,161.2c0-13.3-5.8-21.8-15.2-21.8c-15.9,0-27.8,27.9-27.8,46.9
			c0,13.4,6.7,22,15.7,22C386.7,208.3,398.1,180.5,398.1,161.2z"/>
		<path class="st0" d="M440.9,203.2c6.6,0,10.4-4.4,12.8-7.7h0.4l-6.8,13.5h-40.4l0.2-0.9c18.6-15.4,42.7-36.7,42.7-53.4
			c0-8.8-5-13.1-12.4-13.1c-12.5,0-18.4,9.9-20,17.9h-0.6c2-11.1,10.2-21.5,23.2-21.5c10.7,0,17.8,5.5,17.8,15.6
			c0,18.4-26,35.5-43.7,49.6H440.9z"/>
		<path class="st0" d="M504.5,188.4c0,12.6-11.1,21.3-25.9,21.3c-10.3,0-18.4-8.3-17-18.1h0.5c-1.1,8.3,6.3,15.2,15.5,15.2
			c10.6,0,18.8-8.3,18.8-19.2c0-9.9-6.7-15.2-16.3-15.2h-2.6l0.1-0.8c14.2,0,23-7.8,23-19.1c0-7.5-3.7-11.6-11-11.6
			c-10.1,0-18,7.9-19.2,14.3h-0.5c1.4-7.3,9.5-17.1,21.7-17.1c11.1,0,17.1,5.6,17.1,13.8c0,10.1-9.6,17.6-19.4,19.6
			C495.2,172.8,504.5,177.9,504.5,188.4z"/>
		<path class="st0" d="M512.5,204.8c0-3.4,2.7-6.1,6.5-6.1c3.2,0,5.4,2.1,5.4,4.9c0,3.5-2.6,6.3-6.4,6.3
			C514.7,209.9,512.5,207.6,512.5,204.8z"/>
		<path class="st0" d="M558.8,182.5c0-22.2,15.5-44.5,35.2-44.5c13.1,0,22.9,10.5,22.9,27.2c0,22.2-15.7,44.5-35.5,44.5
			C568.5,209.7,558.8,199.2,558.8,182.5z M609,161.2c0-13.3-5.8-21.8-15.2-21.8c-15.9,0-27.8,27.9-27.8,46.9c0,13.4,6.7,22,15.7,22
			C597.6,208.3,609,180.5,609,161.2z"/>
		<path class="st0" d="M679.1,132.5l-6.3,11.9h-32.2l-10.1,27.7c3.6-2.4,9-4.9,15.1-4.9c12.8,0,20.5,6.9,20.5,19.4
			c0,14.4-11.1,23-27.5,23c-10.6,0-19.4-6.9-17.9-18.2h0.4c-1.1,9.7,7.3,15.8,16.4,15.8c12.5,0,20.5-8.2,20.5-20.7
			c0-10.4-5.2-17.1-15-17.1c-5.8,0-11.1,2.6-14.8,5.3l-0.3-0.5l13-35.7h25.1c6.6,0,10.2-2.7,12.6-6.1H679.1z"/>
		<path class="st0" d="M674.9,204.8c0-3.4,2.7-6.1,6.5-6.1c3.2,0,5.4,2.1,5.4,4.9c0,3.5-2.6,6.3-6.4,6.3
			C677.1,209.9,674.9,207.6,674.9,204.8z"/>
		<path class="st0" d="M717.3,209l0.1-0.6c2.6-1.3,5.2-4.4,5.8-7.4l8.8-50.4c0.4-2.7-0.5-4.3-3.5-4.3h-3v-0.3
			c5.1-1.9,11.2-4.8,16.2-8.3h0.3L730.9,201c-0.5,2.9,1.1,6.5,3.3,7.4L734,209H717.3z"/>
		<path class="st0" d="M779.8,171l0.8,0.4c9.7,5.5,13,12.3,13,19.3c0,11.4-11.4,18.9-25.9,18.9c-12.3,0-21.2-6.2-21.2-16
			c0-10.8,10.6-16.9,21.8-20.7c-9.1-5.4-11.9-10.2-11.9-17.2c0-10.7,11.1-17.8,23.3-17.8c11.5,0,18.9,6,18.9,14.3
			C798.6,161.9,788.3,167.9,779.8,171z M775.3,177.2l-6.1-3.7c-10,3.9-16.4,9.9-16.4,20.3c0,8.7,5.7,14.4,15.2,14.4
			c11.2,0,18.3-6.2,18.3-15.6C786.2,186.2,783.1,181.8,775.3,177.2z M778.9,170.4c8.6-4.3,13.4-9.8,13.4-18.8
			c0-7.5-4-12.2-13.2-12.2c-10,0-15.9,5.7-15.9,14c0,5.9,2.8,9.4,10.4,13.8L778.9,170.4z"/>
	</g>
</g>
</svg>
