<?xml version="1.0" encoding="utf-8"?>
<!-- Generator: Adobe Illustrator 26.2.1, SVG Export Plug-In . SVG Version: 6.00 Build 0)  -->
<svg version="1.1" id="Layer_1" xmlns="http://www.w3.org/2000/svg" xmlns:xlink="http://www.w3.org/1999/xlink" x="0px" y="0px"
	 viewBox="0 0 1125 266.7" style="enable-background:new 0 0 1125 266.7;" xml:space="preserve">
<g>
	<path d="M8.78,96.14c0-40.39,41.78-76.89,83.14-76.89c16.24,0,30.53,4.3,30.53,7.36c0,3.33-4.72,8.61-10.69,8.61
		c-6.25,0-21.79-5.83-35.67-12.08c-29.7,6.66-55.52,33.17-56.07,65.23c-0.42,20.26,12.35,35.67,34.56,35.67
		c10.69,0,21.51-3.89,30.53-12.77l1.25,1.25c-13.74,14.3-27.06,19.99-39.97,19.99C23.63,132.5,8.78,117.24,8.78,96.14z"/>
	<path d="M89.83,128.9l34.84-64.4c13.05-24.29,39.56-45.11,68.56-45.11c6.94,0,11.94,0.69,11.94,2.91c0,3.05-4.86,9.16-11.94,9.16
		c-5,0-10.83-1.8-24.01-5.27c-12.63,4.3-19.85,11.94-29.56,30.4l-25.4,48.3c6.94-9.02,14.43-17.35,21.79-24.43
		c12.21-11.94,23.73-19.57,30.4-19.57c4.86,0,7.08,3.89,7.08,7.63c0,12.49-24.29,43.03-24.29,52.6c0,2.36,1.39,3.75,3.89,3.75
		c2.91,0,7.22-2.64,13.05-7.91l1.11,1.39c-10.13,9.3-18.32,14.16-22.48,14.16c-5.97,0-7.63-4.72-7.63-8.05
		c0-14.3,24.43-42.89,24.43-52.46c0-2.22-1.11-3.89-3.75-3.89c-5,0-11.94,5.41-20.68,13.74c-9.58,9.02-20.12,21.37-28.45,33.73
		l-7.49,14.16c-0.56,1.11-1.39,1.67-2.5,1.67h-7.36C89.83,131.39,89.13,130.28,89.83,128.9z"/>
	<path d="M176.43,116.13c0-24.57,31.51-55.24,53.44-55.24c7.22,0,10.83,3.19,10.83,8.05c0,9.02-10.55,18.6-52.05,44.69
		c0.83,6.52,4.86,11.1,12.91,11.1c4.86,0,11.8-1.53,21.37-10.13l1.11,1.25c-12.21,11.24-24.29,16.52-31.23,16.52
		C181.43,132.5,176.43,124.18,176.43,116.13z M228.9,73.38c0-4.58-3.47-7.22-8.05-7.22c-17.77,0-32.76,27.06-32.34,45.39v0.14
		C217.79,93.36,228.9,83.51,228.9,73.38z"/>
	<path d="M233.89,115.57c0-22.62,28.73-54.68,50.1-54.68c11.1,0,14.57,8.74,14.57,15.96c0,26.65-30.67,55.66-48.86,55.66
		C240.69,132.5,233.89,126.4,233.89,115.57z M258.46,126.81c17.49,0,28.87-30.53,28.87-45.39c0-9.85-4.72-14.71-12.63-14.71
		c-17.49,0-29.29,27.62-29.29,43.86C245.41,119.87,248.88,126.81,258.46,126.81z"/>
	<path d="M297.46,123.76c0-4.86,2.5-12.91,8.74-24.01l19.71-35.25c13.32-24.29,38.31-45.11,69.12-45.11c6.8,0,11.38,0.83,11.38,3.05
		c0,3.05-5,9.02-11.66,9.02c-5.14,0-11.66-1.94-24.43-5.41c-11.8,4.16-19.15,11.66-29.29,30.53L317.3,100.3
		c-4.86,8.88-7.91,16.93-7.91,20.54c0,2.64,1.53,4.02,4.16,4.02c2.78,0,7.08-2.64,12.91-7.91l1.11,1.39
		c-10.13,9.16-18.32,14.16-22.48,14.16C299.54,132.5,297.46,127.79,297.46,123.76z"/>
	<path d="M329.65,122.23c0.28-4.02,3.89-8.47,11.8-13.19l0.97,0.83c-1.39,2.08-2.5,4.72-2.5,7.63c0,5.41,3.47,10.69,12.21,10.83
		c7.77,0,14.43-5.41,14.43-13.6c0-10.83-12.49-22.62-12.07-32.89c0.42-12.21,16.1-20.82,30.67-20.82c5.41,0,12.91,1.39,12.91,3.89
		c0,3.47-3.89,7.91-8.61,7.91c-4.44,0-10.13-2.92-19.01-7.08c-4.86,1.94-6.66,5.14-6.94,8.47c-0.56,11.38,12.77,22.62,12.21,34.98
		c-0.69,12.77-17.21,23.18-31.92,23.18C333.68,132.37,329.24,128.06,329.65,122.23z"/>
	<path d="M434.16,124.32c0-8.6,5.83-21.37,12.77-33.87c-6.11,7.91-12.35,15.27-18.18,21.51c-11.52,12.35-21.79,20.54-28.87,20.54
		c-4.72,0-9.44-3.47-9.44-9.02c0-11.52,24.84-40.81,24.84-51.49c0-2.22-0.97-3.47-3.33-3.47c-2.91,0-7.36,2.22-13.46,7.91
		l-1.11-1.39c9.99-9.16,18.32-14.16,23.04-14.16c5.41,0,7.22,4.02,7.22,7.22c0,12.49-24.71,42.75-24.71,52.46
		c0,2.22,1.11,4.44,4.58,4.44c4.72,0,11.24-5.27,19.85-14.3c8.61-9.02,18.6-21.24,27.62-33.87c2.64-4.3,5.14-8.47,7.36-12.08
		c0.69-0.97,1.39-1.53,2.5-1.53l7.22,0.14c1.67,0,2.22,1.11,1.25,2.5c-5.69,9.02-12.21,19.57-17.77,30.12
		c-5.97,11.38-9.16,19.85-9.16,24.57c0,2.64,1.25,4.16,3.75,4.16c2.91,0,7.08-2.5,12.77-7.77l1.11,1.39
		c-9.85,9.3-18.18,14.16-22.35,14.16C435.69,132.5,434.16,127.65,434.16,124.32z"/>
	<path d="M541.86,130.28c0-0.83,2.78-3.33,5.27-5.41l0.42-0.28l2.5-2.08c4.02-3.89,6.11-6.66,9.44-13.05
		c4.58-8.88,9.72-21.37,9.99-27.48c-0.14-11.94-3.19-28.59-5.69-39.14c-1.67-7.5-3.33-13.46-9.16-13.6l-10.69,0.28
		c-7.36,0.28-9.99,2.78-14.3,7.36l-1.25-0.83c4.44-5.69,8.05-10.27,11.94-13.6c1.94-1.53,4.58-2.08,7.36-2.08h33.87
		c1.25,0,1.8,0.56,1.11,1.8l-3.47,5.27c-0.97,1.25-2.08,1.25-3.19,1.25l-15.27,0.42c5.41,1.25,10.83,4.44,12.77,11.66
		s5.41,23.73,6.25,41.5l48.16-66.07c2.64-3.61,5.27-6.38,7.08-6.25c2.36,0,3.61,3.19,3.61,5.69c0,2.78-0.28,5-2.5,7.5l-56.49,62.6
		c-2.36,6.8-3.89,12.07-7.22,19.57c-3.05,6.66-5.97,9.72-11.38,12.91l-5.97,3.61c3.89-0.14,13.05,0,21.1-0.14
		c1.53-0.14,1.67,0.28,1.67,0.83c0,1.25-3.47,6.25-5.41,7.91c-0.97,0.83-2.36,0.97-4.03,0.97h-24.98
		C542,131.39,541.86,130.84,541.86,130.28z"/>
	<path d="M601.53,115.57c0-22.62,28.73-54.68,50.1-54.68c11.1,0,14.57,8.74,14.57,15.96c0,26.65-30.67,55.66-48.86,55.66
		C608.33,132.5,601.53,126.4,601.53,115.57z M626.1,126.81c17.49,0,28.87-30.53,28.87-45.39c0-9.85-4.72-14.71-12.63-14.71
		c-17.49,0-29.29,27.62-29.29,43.86C613.05,119.87,616.52,126.81,626.1,126.81z"/>
	<path d="M712.71,124.32c0-8.6,5.83-21.37,12.77-33.87c-6.11,7.91-12.35,15.27-18.18,21.51c-11.52,12.35-21.79,20.54-28.87,20.54
		c-4.72,0-9.44-3.47-9.44-9.02c0-11.52,24.84-40.81,24.84-51.49c0-2.22-0.97-3.47-3.33-3.47c-2.92,0-7.36,2.22-13.46,7.91
		l-1.11-1.39c9.99-9.16,18.32-14.16,23.04-14.16c5.41,0,7.22,4.02,7.22,7.22c0,12.49-24.71,42.75-24.71,52.46
		c0,2.22,1.11,4.44,4.58,4.44c4.72,0,11.24-5.27,19.85-14.3s18.6-21.24,27.62-33.87c2.64-4.3,5.13-8.47,7.36-12.08
		c0.69-0.97,1.39-1.53,2.5-1.53l7.22,0.14c1.67,0,2.22,1.11,1.25,2.5c-5.69,9.02-12.21,19.57-17.77,30.12
		c-5.97,11.38-9.16,19.85-9.16,24.57c0,2.64,1.25,4.16,3.75,4.16c2.92,0,7.08-2.5,12.77-7.77l1.11,1.39
		c-9.85,9.3-18.18,14.16-22.35,14.16C714.23,132.5,712.71,127.65,712.71,124.32z"/>
	<path d="M749.76,128.76c8.74-14.99,27.76-49.13,27.76-56.77c0-2.22-1.25-3.61-3.61-3.61c-2.91,0-7.36,2.36-13.6,8.05l-1.11-1.39
		c10.13-9.16,18.46-14.16,23.18-14.16c5.27,0,7.08,4.02,7.08,7.22c0,5.55-7.36,21.37-14.85,35.81c6.8-8.74,14.02-16.66,21.1-23.46
		c12.21-11.94,23.73-19.57,30.4-19.57c4.86,0,7.08,3.89,7.08,7.63c0,12.49-24.29,43.03-24.29,52.6c0,2.36,1.39,3.75,3.89,3.75
		c2.92,0,7.22-2.64,13.05-7.91l1.11,1.39c-10.13,9.3-18.32,14.16-22.48,14.16c-5.97,0-7.63-4.72-7.63-8.05
		c0-14.3,24.43-42.89,24.43-52.46c0-2.22-1.11-3.89-3.75-3.89c-5,0-11.94,5.41-20.68,13.74c-9.44,8.88-19.71,20.82-27.9,33.03
		c-3.89,6.94-7.22,12.63-8.74,14.99c-0.69,1.11-1.39,1.53-2.5,1.53h-6.66C749.48,131.39,748.93,130.28,749.76,128.76z"/>
	<path d="M814.99,159.71c0.28-4.02,4.02-9.3,12.08-14.02l0.97,0.83c-1.39,2.08-2.64,4.72-2.64,7.63c0,5.55,3.75,10.55,13.88,10.55
		c5.27,0,11.52-2.5,15.41-5.41c12.08-9.3,18.74-32.62,39.83-71.2l3.19-5.97c-24.29,29.7-44,50.52-53.3,50.38
		c-6.8-0.28-9.02-6.11-9.02-11.94c0.28-24.71,29.56-59.68,56.91-59.68c5.27,0,15.68,0.97,22.9,3.19l0.83,0.28
		c1.25,0.42,1.53,1.53,0.83,2.78l-18.46,35.11c-17.35,33.17-28.73,48.02-42.75,58.57c-8.33,6.11-17.49,9.02-26.37,9.02
		C819.01,169.84,814.57,165.4,814.99,159.71z M851.63,124.87c6.25,0,24.01-17.9,50.52-50.94l1.67-3.19
		c-6.25-2.36-15.41-4.72-21.51-4.72c-19.99,0-35.39,33.17-35.39,50.94C846.91,120.43,847.88,124.87,851.63,124.87z"/>
	<path d="M904.64,128.9l34.84-64.4c13.05-24.29,39.56-45.11,68.56-45.11c6.94,0,11.94,0.69,11.94,2.91c0,3.05-4.86,9.16-11.94,9.16
		c-5,0-10.83-1.8-24.01-5.27c-12.63,4.3-19.85,11.94-29.56,30.4l-25.4,48.3c6.94-9.02,14.43-17.35,21.79-24.43
		c12.21-11.94,23.73-19.57,30.4-19.57c4.86,0,7.08,3.89,7.08,7.63c0,12.49-24.29,43.03-24.29,52.6c0,2.36,1.39,3.75,3.89,3.75
		c2.92,0,7.22-2.64,13.05-7.91l1.11,1.39c-10.13,9.3-18.32,14.16-22.48,14.16c-5.97,0-7.63-4.72-7.63-8.05
		c0-14.3,24.43-42.89,24.43-52.46c0-2.22-1.11-3.89-3.75-3.89c-5,0-11.94,5.41-20.68,13.74c-9.58,9.02-20.12,21.37-28.45,33.73
		l-7.5,14.16c-0.55,1.11-1.39,1.67-2.5,1.67h-7.36C904.64,131.39,903.95,130.28,904.64,128.9z"/>
	<path d="M991.25,116.13c0-24.57,31.51-55.24,53.44-55.24c7.22,0,10.83,3.19,10.83,8.05c0,9.02-10.55,18.6-52.05,44.69
		c0.83,6.52,4.86,11.1,12.91,11.1c4.86,0,11.8-1.53,21.37-10.13l1.11,1.25c-12.21,11.24-24.29,16.52-31.23,16.52
		C996.24,132.5,991.25,124.18,991.25,116.13z M1043.71,73.38c0-4.58-3.47-7.22-8.05-7.22c-17.77,0-32.75,27.06-32.34,45.39v0.14
		C1032.61,93.36,1043.71,83.51,1043.71,73.38z"/>
	<path d="M1048.43,116.13c0-24.57,31.51-55.24,53.44-55.24c7.22,0,10.83,3.19,10.83,8.05c0,9.02-10.55,18.6-52.05,44.69
		c0.83,6.52,4.86,11.1,12.91,11.1c4.86,0,11.8-1.53,21.37-10.13l1.11,1.25c-12.21,11.24-24.29,16.52-31.23,16.52
		C1053.42,132.5,1048.43,124.18,1048.43,116.13z M1100.89,73.38c0-4.58-3.47-7.22-8.05-7.22c-17.77,0-32.76,27.06-32.34,45.39v0.14
		C1089.79,93.36,1100.89,83.51,1100.89,73.38z"/>
</g>
<g>
	<g>
		<path d="M284.91,183.5c0-9.76-6-15.76-15.06-15.76c-6.12,0-12.35,2.59-17.29,8.12l-0.94-1.06c6.47-7.76,14.23-13.18,24.71-13.18
			c10.35,0,18.94,6.94,19.06,18.94c0.12,22.23-27.29,43.65-41.65,56.35h26.82c11.65,0,14.12-2.24,16.23-8.71l1.18,0.12l-1.76,16.47
			h-51.65v-1.65C260.79,227.5,284.91,205.5,284.91,183.5z"/>
		<path d="M306.79,203.38c0-25.65,17.29-41.76,35.41-41.76c16.71,0,36.12,13.88,36.12,42.59c0,25.65-17.29,41.76-35.29,41.76
			C326.31,245.97,306.79,232.09,306.79,203.38z M347.14,243.61c14.24,0,21.53-13.53,21.65-32.23c0.12-23.65-12-47.41-30.47-47.41
			c-14.47,0-21.88,13.53-22,32.35C316.2,219.85,328.31,243.61,347.14,243.61z"/>
		<path d="M420.07,183.5c0-9.76-6-15.76-15.06-15.76c-6.12,0-12.35,2.59-17.29,8.12l-0.94-1.06c6.47-7.76,14.23-13.18,24.71-13.18
			c10.35,0,18.94,6.94,19.06,18.94c0.12,22.23-27.29,43.65-41.65,56.35h26.82c11.65,0,14.12-2.24,16.23-8.71l1.18,0.12l-1.76,16.47
			h-51.65v-1.65C395.96,227.5,420.07,205.5,420.07,183.5z"/>
		<path d="M477.6,215.03c0-13.53-7.53-16.82-14.59-16.82c-2.59,0-5.41,0.71-8,2l-0.47-1.18c11.18-5.18,17.18-11.29,17.18-20.35
			c0-7.06-4.94-11.18-12.47-11.18c-5.65,0-11.41,2.35-16.47,7.53l-1.06-1.06c6.82-7.65,14-12.35,23.53-12.35
			c9.88,0,15.76,6.59,15.76,13.76c0,10.47-8,15.76-19.18,21.41c1.88-0.59,4-0.94,6.71-0.94c7.65,0,19.41,3.88,19.41,17.18
			c0,19.76-21.06,35.06-46,48.23l-0.71-1.53C463.84,248.2,477.6,229.5,477.6,215.03z"/>
		<path d="M500.07,239.26c0-3.41,2.82-6.24,6.12-6.24s6,2.82,6,6.24c0,3.41-2.71,6.35-6,6.35S500.07,242.67,500.07,239.26z"/>
		<path d="M548.3,203.38c0-25.65,17.29-41.76,35.41-41.76c16.71,0,36.12,13.88,36.12,42.59c0,25.65-17.29,41.76-35.29,41.76
			C567.83,245.97,548.3,232.09,548.3,203.38z M588.65,243.61c14.23,0,21.53-13.53,21.65-32.23c0.12-23.65-12-47.41-30.47-47.41
			c-14.47,0-21.88,13.53-22,32.35C557.71,219.85,569.83,243.61,588.65,243.61z"/>
		<path d="M662.29,213.15c0-10.94-7.65-16.35-19.29-16.12c-5.65,0.12-10.24,1.29-12.59,1.76l-1.18-0.82l6-35.53h18.12
			c10.47,0,14.47-2.82,16.47-7.53l1.29,0.59c-2.82,6.47-7.29,14.47-21.06,14.47h-14.47l-3.29,21.18c4.35-1.41,8.94-2.12,15.06-2.12
			c18.35,0,25.18,10.94,25.18,20.94c0,17.41-16.47,33.65-45.18,51.29l-1.06-1.41C647.71,246.32,662.29,229.03,662.29,213.15z"/>
		<path d="M685.94,239.26c0-3.41,2.82-6.24,6.12-6.24c3.29,0,6,2.82,6,6.24c0,3.41-2.71,6.35-6,6.35
			C688.76,245.61,685.94,242.67,685.94,239.26z"/>
		<path d="M737.7,243.26c4.35-1.06,5.65-3.76,5.65-13.41V172.2l-10.35,4.35l-0.24-0.82l19.29-13.88h0.94v68
			c0,9.65,1.29,12.35,5.65,13.41v1.53H737.7V243.26z"/>
		<path d="M769.7,226.56c0-10.94,8.94-19.18,16.71-24.71c-6.94-4.59-12.35-10.47-12.35-19.88c0-9.53,8.24-20.35,23.18-20.35
			c12.47,0,20.12,7.65,20.12,16.24c0,8.71-7.06,16.23-14.59,21.65c9.88,5.41,19.53,11.06,19.53,22c0,14.24-11.53,24.47-28.12,24.47
			C783.23,245.97,769.7,239.85,769.7,226.56z M798.64,243.38c9.76,0,16.47-6.47,16.47-14.94c0-13.53-15.29-18.12-27.29-25.65
			c-5.88,4.82-9.29,12.24-9.29,19.53C778.52,238.79,791.11,243.38,798.64,243.38z M800.99,198.56c3.76-4.47,7.53-11.65,7.53-18.82
			c0-6.94-3.29-16-14.24-16c-9.18,0-13.53,6.47-13.53,12.82C780.75,187.38,790.75,193.03,800.99,198.56z"/>
	</g>
</g>
</svg>
